<svg width="940" height="680" viewBox="0 0 940 680" xmlns="http://www.w3.org/2000/svg" font-family="Arial, sans-serif">
  <title>PulseCredit Component and Deployment Diagram</title>
  <defs>
    <marker id="arr" viewBox="0 0 10 10" refX="9" refY="5" markerWidth="7" markerHeight="7" orient="auto">
      <path d="M1 2L9 5L1 8" fill="none" stroke="#555" stroke-width="1.3"/>
    </marker>
  </defs>

  <rect width="940" height="680" fill="#fafafa" rx="12"/>
  <text x="470" y="34" text-anchor="middle" font-size="18" font-weight="bold" fill="#1a1a1a">PulseCredit — Component &amp; Deployment Diagram</text>

  <!-- DEPLOYMENT NODE: Browser / Client -->
  <rect x="20" y="58" width="280" height="290" rx="12" fill="#E6F1FB" stroke="#378ADD" stroke-width="1.5" stroke-dasharray="7,4"/>
  <text x="40" y="80" font-size="12" font-weight="bold" fill="#042C53">«browser»  Client Device</text>

  <rect x="36" y="92" width="248" height="36" rx="8" fill="white" stroke="#378ADD" stroke-width="1.2"/>
  <text x="160" y="114" text-anchor="middle" font-size="11" font-weight="bold" fill="#042C53">UploadZone.tsx</text>

  <rect x="36" y="136" width="120" height="36" rx="8" fill="white" stroke="#378ADD" stroke-width="1.2"/>
  <text x="96" y="158" text-anchor="middle" font-size="11" fill="#042C53">ScoreRing.tsx</text>

  <rect x="164" y="136" width="120" height="36" rx="8" fill="white" stroke="#378ADD" stroke-width="1.2"/>
  <text x="224" y="158" text-anchor="middle" font-size="11" fill="#042C53">RadarChart.tsx</text>

  <rect x="36" y="180" width="120" height="36" rx="8" fill="white" stroke="#378ADD" stroke-width="1.2"/>
  <text x="96" y="196" text-anchor="middle" font-size="11" fill="#042C53">SHAP</text>
  <text x="96" y="210" text-anchor="middle" font-size="11" fill="#042C53">Waterfall.tsx</text>

  <rect x="164" y="180" width="120" height="36" rx="8" fill="white" stroke="#378ADD" stroke-width="1.2"/>
  <text x="224" y="196" text-anchor="middle" font-size="11" fill="#042C53">WhatIf</text>
  <text x="224" y="210" text-anchor="middle" font-size="11" fill="#042C53">Simulator.tsx</text>

  <rect x="36" y="224" width="120" height="36" rx="8" fill="white" stroke="#378ADD" stroke-width="1.2"/>
  <text x="96" y="240" text-anchor="middle" font-size="11" fill="#042C53">SocialGraph</text>
  <text x="96" y="254" text-anchor="middle" font-size="11" fill="#042C53">.tsx (D3)</text>

  <rect x="164" y="224" width="120" height="36" rx="8" fill="white" stroke="#378ADD" stroke-width="1.2"/>
  <text x="224" y="240" text-anchor="middle" font-size="11" fill="#042C53">LenderReport</text>
  <text x="224" y="254" text-anchor="middle" font-size="11" fill="#042C53">.tsx + jsPDF</text>

  <rect x="36" y="268" width="248" height="36" rx="8" fill="#E6F1FB" stroke="#378ADD" stroke-width="1.2"/>
  <text x="160" y="286" text-anchor="middle" font-size="11" fill="#042C53">Zustand store (lib/store.ts)</text>
  <text x="160" y="299" text-anchor="middle" font-size="10" fill="#378ADD">global: profileId, score, overrides</text>

  <!-- DEPLOYMENT NODE: Vercel (Next.js SSR) -->
  <rect x="20" y="368" width="280" height="120" rx="12" fill="#EAF3DE" stroke="#639922" stroke-width="1.5" stroke-dasharray="7,4"/>
  <text x="40" y="390" font-size="12" font-weight="bold" fill="#27500A">«Vercel»  Next.js 14 SSR</text>

  <rect x="36" y="400" width="248" height="36" rx="8" fill="white" stroke="#639922" stroke-width="1.2"/>
  <text x="160" y="422" text-anchor="middle" font-size="11" fill="#27500A">app/ router — page.tsx files</text>

  <rect x="36" y="444" width="248" height="36" rx="8" fill="white" stroke="#639922" stroke-width="1.2"/>
  <text x="160" y="461" text-anchor="middle" font-size="11" fill="#27500A">lib/api.ts — axios to FastAPI</text>
  <text x="160" y="474" text-anchor="middle" font-size="10" fill="#639922">NEXT_PUBLIC_API_URL → Render URL</text>

  <!-- DEPLOYMENT NODE: Render (FastAPI) -->
  <rect x="330" y="58" width="300" height="420" rx="12" fill="#EEEDFE" stroke="#7F77DD" stroke-width="1.5" stroke-dasharray="7,4"/>
  <text x="350" y="80" font-size="12" font-weight="bold" fill="#26215C">«Render»  FastAPI Backend</text>

  <rect x="346" y="92" width="268" height="36" rx="8" fill="white" stroke="#7F77DD" stroke-width="1.2"/>
  <text x="480" y="114" text-anchor="middle" font-size="11" font-weight="bold" fill="#26215C">main.py — FastAPI app</text>

  <rect x="346" y="136" width="126" height="36" rx="8" fill="white" stroke="#7F77DD" stroke-width="1.2"/>
  <text x="409" y="158" text-anchor="middle" font-size="11" fill="#26215C">pdf_parser.py</text>

  <rect x="480" y="136" width="134" height="36" rx="8" fill="white" stroke="#7F77DD" stroke-width="1.2"/>
  <text x="547" y="158" text-anchor="middle" font-size="11" fill="#26215C">nlp_pipeline.py</text>

  <rect x="346" y="180" width="268" height="36" rx="8" fill="white" stroke="#7F77DD" stroke-width="1.2"/>
  <text x="480" y="198" text-anchor="middle" font-size="11" fill="#26215C">feature_engine.py</text>
  <text x="480" y="211" text-anchor="middle" font-size="10" fill="#534AB7">24 features across 6 dimensions</text>

  <rect x="346" y="224" width="268" height="36" rx="8" fill="white" stroke="#7F77DD" stroke-width="1.2"/>
  <text x="480" y="244" text-anchor="middle" font-size="11" fill="#26215C">social_graph.py (NetworkX)</text>

  <rect x="346" y="268" width="268" height="48" rx="8" fill="#FAEEDA" stroke="#BA7517" stroke-width="1.5"/>
  <text x="480" y="286" text-anchor="middle" font-size="11" font-weight="bold" fill="#412402">ensemble.py</text>
  <text x="480" y="302" text-anchor="middle" font-size="10" fill="#412402">XGBoost(60%) + Autoencoder(25%) + Rules(15%)</text>
  <text x="480" y="315" text-anchor="middle" font-size="10" fill="#412402">Platt scaling → 300-850</text>

  <rect x="346" y="324" width="126" height="36" rx="8" fill="white" stroke="#BA7517" stroke-width="1.2"/>
  <text x="409" y="346" text-anchor="middle" font-size="11" fill="#412402">models/</text>
  <text x="409" y="358" text-anchor="middle" font-size="10" fill="#633806">model.pkl</text>

  <rect x="480" y="324" width="134" height="36" rx="8" fill="white" stroke="#D85A30" stroke-width="1.2"/>
  <text x="547" y="346" text-anchor="middle" font-size="11" fill="#4A1B0C">models/</text>
  <text x="547" y="358" text-anchor="middle" font-size="10" fill="#993C1D">autoencoder.pt</text>

  <rect x="346" y="368" width="268" height="36" rx="8" fill="white" stroke="#7F77DD" stroke-width="1.2"/>
  <text x="480" y="390" text-anchor="middle" font-size="11" fill="#26215C">gemini_client.py</text>
  <text x="480" y="403" text-anchor="middle" font-size="10" fill="#534AB7">3 structured prompts → JSON</text>

  <rect x="346" y="412" width="268" height="36" rx="8" fill="white" stroke="#7F77DD" stroke-width="1.2"/>
  <text x="480" y="430" text-anchor="middle" font-size="11" fill="#26215C">supabase_client.py</text>
  <text x="480" y="443" text-anchor="middle" font-size="10" fill="#534AB7">insert scores + fetch personas</text>

  <!-- DEPLOYMENT NODE: Supabase -->
  <rect x="330" y="498" width="300" height="150" rx="12" fill="#EAF3DE" stroke="#1D9E75" stroke-width="1.5" stroke-dasharray="7,4"/>
  <text x="350" y="520" font-size="12" font-weight="bold" fill="#085041">«Supabase»  PostgreSQL</text>

  <rect x="346" y="530" width="126" height="36" rx="8" fill="white" stroke="#1D9E75" stroke-width="1.2"/>
  <text x="409" y="552" text-anchor="middle" font-size="11" fill="#085041">profiles</text>

  <rect x="480" y="530" width="134" height="36" rx="8" fill="white" stroke="#1D9E75" stroke-width="1.2"/>
  <text x="547" y="552" text-anchor="middle" font-size="11" fill="#085041">transactions</text>

  <rect x="346" y="574" width="126" height="36" rx="8" fill="white" stroke="#1D9E75" stroke-width="1.2"/>
  <text x="409" y="594" text-anchor="middle" font-size="11" fill="#085041">feature_vectors</text>

  <rect x="480" y="574" width="134" height="36" rx="8" fill="white" stroke="#1D9E75" stroke-width="1.2"/>
  <text x="547" y="594" text-anchor="middle" font-size="11" fill="#085041">scores</text>

  <text x="480" y="636" text-anchor="middle" font-size="10" fill="#1D9E75">Row-level security · free tier · pg_uuid</text>

  <!-- EXTERNAL NODE: Gemini Flash -->
  <rect x="660" y="58" width="260" height="130" rx="12" fill="#FAECE7" stroke="#D85A30" stroke-width="1.5" stroke-dasharray="7,4"/>
  <text x="680" y="80" font-size="12" font-weight="bold" fill="#4A1B0C">«External API»  Google Gemini</text>
  <rect x="676" y="92" width="228" height="34" rx="8" fill="white" stroke="#D85A30" stroke-width="1.2"/>
  <text x="790" y="113" text-anchor="middle" font-size="11" fill="#4A1B0C">gemini-1.5-flash (free tier)</text>
  <text x="790" y="140" text-anchor="middle" font-size="10" fill="#D85A30">15 RPM limit · structured JSON output</text>
  <text x="790" y="155" text-anchor="middle" font-size="10" fill="#D85A30">3 calls per score: explain · actions · memo</text>
  <text x="790" y="170" text-anchor="middle" font-size="10" fill="#D85A30">GEMINI_API_KEY in .env</text>

  <!-- EXTERNAL NODE: GitHub Actions -->
  <rect x="660" y="210" width="260" height="100" rx="12" fill="#F1EFE8" stroke="#888780" stroke-width="1.5" stroke-dasharray="7,4"/>
  <text x="680" y="232" font-size="12" font-weight="bold" fill="#2C2C2A">«CI/CD»  GitHub Actions</text>
  <rect x="676" y="244" width="228" height="30" rx="8" fill="white" stroke="#888780" stroke-width="1.2"/>
  <text x="790" y="263" text-anchor="middle" font-size="11" fill="#2C2C2A">on push main → deploy</text>
  <text x="790" y="290" text-anchor="middle" font-size="10" fill="#5F5E5A">Vercel CLI + Render deploy hook</text>

  <!-- CONNECTIONS -->
  <!-- Browser → Vercel (SSR) -->
  <line x1="160" y1="350" x2="160" y2="368" stroke="#378ADD" stroke-width="1.5" marker-end="url(#arr)"/>

  <!-- Browser → FastAPI (HTTP/REST) -->
  <line x1="300" y1="200" x2="330" y2="200" stroke="#555" stroke-width="1.5" marker-end="url(#arr)"/>
  <text x="310" y="194" font-size="10" fill="#555" text-anchor="middle">REST</text>

  <!-- Vercel → FastAPI (proxy) -->
  <line x1="300" y1="430" x2="330" y2="350" stroke="#555" stroke-width="1.2" stroke-dasharray="5,3" marker-end="url(#arr)"/>

  <!-- FastAPI → Supabase -->
  <line x1="480" y1="480" x2="480" y2="498" stroke="#1D9E75" stroke-width="1.5" marker-end="url(#arr)"/>

  <!-- FastAPI → Gemini -->
  <line x1="614" y1="385" x2="660" y2="140" stroke="#D85A30" stroke-width="1.5" marker-end="url(#arr)"/>
  <text x="650" y="270" font-size="10" fill="#D85A30">HTTPS</text>

  <!-- GitHub → Vercel + Render -->
  <line x1="660" y1="258" x2="300" y2="420" stroke="#888" stroke-width="1" stroke-dasharray="4,3" marker-end="url(#arr)"/>
  <line x1="660" y1="268" x2="630" y2="268" stroke="#888" stroke-width="1" stroke-dasharray="4,3"/>
  <line x1="630" y1="268" x2="630" y2="200" stroke="#888" stroke-width="1" stroke-dasharray="4,3" marker-end="url(#arr)"/>
</svg>
